<svg width="444" height="221" viewBox="0 0 444 221" fill="none" xmlns="http://www.w3.org/2000/svg">
<path d="M112.988 14.1523V0.753906H116.133V14.125C116.133 16.0391 116.543 17.4701 117.363 18.418C118.202 19.3477 119.323 19.8125 120.727 19.8125C122.167 19.8125 123.297 19.3294 124.117 18.3633C124.938 17.3971 125.348 15.9844 125.348 14.125V0.753906H128.492V14.1523C128.492 16.7956 127.836 18.8464 126.523 20.3047C125.211 21.763 123.279 22.4922 120.727 22.4922C118.266 22.4922 116.361 21.7904 115.012 20.3867C113.663 18.9648 112.988 16.8867 112.988 14.1523ZM136.039 14.2617C136.039 15.9753 136.376 17.3516 137.051 18.3906C137.725 19.4297 138.655 19.9492 139.84 19.9492C140.97 19.9492 141.891 19.4479 142.602 18.4453C143.331 17.4245 143.695 16.0299 143.695 14.2617C143.695 12.5664 143.349 11.2083 142.656 10.1875C141.982 9.16667 141.043 8.65625 139.84 8.65625C138.673 8.65625 137.743 9.17578 137.051 10.2148C136.376 11.2539 136.039 12.6029 136.039 14.2617ZM133.086 28.4258V6.57812H135.957V8.82031C136.358 8.01823 136.932 7.36198 137.68 6.85156C138.427 6.34115 139.284 6.08594 140.25 6.08594C142.128 6.08594 143.686 6.82422 144.926 8.30078C146.165 9.77734 146.785 11.7643 146.785 14.2617C146.785 15.6471 146.585 16.8867 146.184 17.9805C145.801 19.0742 145.29 19.9401 144.652 20.5781C144.014 21.2161 143.322 21.6901 142.574 22C141.827 22.3281 141.052 22.4922 140.25 22.4922C139.211 22.4922 138.336 22.2461 137.625 21.7539C136.914 21.2435 136.395 20.6328 136.066 19.9219V28.4258H133.086ZM150.121 22V0.015625H153.129V22H150.121ZM159.527 14.2891C159.527 16.1302 159.919 17.5339 160.703 18.5C161.487 19.4661 162.426 19.9492 163.52 19.9492C164.595 19.9492 165.525 19.4661 166.309 18.5C167.111 17.5339 167.512 16.1302 167.512 14.2891C167.512 12.4297 167.111 11.026 166.309 10.0781C165.525 9.13021 164.595 8.65625 163.52 8.65625C162.444 8.65625 161.505 9.13021 160.703 10.0781C159.919 11.026 159.527 12.4297 159.527 14.2891ZM156.465 14.2891C156.465 12.7943 156.702 11.4453 157.176 10.2422C157.668 9.03906 158.461 8.04557 159.555 7.26172C160.648 6.47786 161.97 6.08594 163.52 6.08594C165.798 6.08594 167.539 6.87891 168.742 8.46484C169.964 10.0326 170.574 11.974 170.574 14.2891C170.574 15.237 170.456 16.1667 170.219 17.0781C169.982 17.9714 169.599 18.8372 169.07 19.6758C168.56 20.5143 167.822 21.1979 166.855 21.7266C165.908 22.237 164.796 22.4922 163.52 22.4922C162.243 22.4922 161.132 22.2461 160.184 21.7539C159.236 21.2435 158.497 20.5781 157.969 19.7578C157.458 18.9193 157.076 18.0443 156.82 17.1328C156.583 16.2214 156.465 15.2734 156.465 14.2891ZM175.688 17.7891C175.688 18.4089 175.934 18.9284 176.426 19.3477C176.936 19.7669 177.62 19.9766 178.477 19.9766C179.643 19.9766 180.637 19.6029 181.457 18.8555C182.277 18.0898 182.688 17.0964 182.688 15.875V14.207C181.849 14.4076 180.746 14.6172 179.379 14.8359C178.139 15.0365 177.21 15.3737 176.59 15.8477C175.988 16.3216 175.688 16.9688 175.688 17.7891ZM172.625 18.0352C172.625 15.1549 174.803 13.3776 179.16 12.7031C180.965 12.4297 182.141 12.2018 182.688 12.0195V11.1719C182.688 10.3516 182.387 9.70443 181.785 9.23047C181.202 8.73828 180.409 8.49219 179.406 8.49219C177.638 8.49219 176.134 9.21224 174.895 10.6523L173.035 9.06641C173.819 8.13672 174.758 7.40755 175.852 6.87891C176.964 6.35026 178.13 6.08594 179.352 6.08594C183.581 6.08594 185.695 8.16406 185.695 12.3203V22H182.77V19.8672C182.46 20.5781 181.876 21.1979 181.02 21.7266C180.163 22.237 179.169 22.4922 178.039 22.4922C176.362 22.4922 175.04 22.082 174.074 21.2617C173.108 20.4232 172.625 19.3477 172.625 18.0352ZM188.539 14.2617C188.539 11.7279 189.15 9.73177 190.371 8.27344C191.611 6.8151 193.178 6.08594 195.074 6.08594C196.04 6.08594 196.888 6.34115 197.617 6.85156C198.346 7.36198 198.884 7.94531 199.23 8.60156V0.015625H202.238V22H199.312V19.7578C198.966 20.5234 198.41 21.1706 197.645 21.6992C196.897 22.2279 196.04 22.4922 195.074 22.4922C194.272 22.4922 193.497 22.3372 192.75 22.0273C192.021 21.7174 191.328 21.2526 190.672 20.6328C190.034 20.013 189.514 19.1562 189.113 18.0625C188.73 16.9505 188.539 15.6836 188.539 14.2617ZM191.602 14.2617C191.602 16.0299 191.957 17.4245 192.668 18.4453C193.397 19.4479 194.336 19.9492 195.484 19.9492C196.578 19.9492 197.48 19.4388 198.191 18.418C198.921 17.3971 199.285 16.0117 199.285 14.2617C199.285 12.5664 198.93 11.2083 198.219 10.1875C197.508 9.16667 196.596 8.65625 195.484 8.65625C194.281 8.65625 193.333 9.16667 192.641 10.1875C191.948 11.2083 191.602 12.5664 191.602 14.2617ZM213.777 22V0.753906H227.094V3.43359H216.895V10.0234H226.055V12.6484H216.895V22H213.777ZM229.664 3.89844V0.453125H233.027V3.89844H229.664ZM229.883 22V6.57812H232.863V22H229.883ZM237.512 22V0.015625H240.52V22H237.512ZM243.855 14.207C243.855 11.7643 244.521 9.80469 245.852 8.32812C247.201 6.83333 248.905 6.08594 250.965 6.08594C253.025 6.08594 254.693 6.82422 255.969 8.30078C257.263 9.77734 257.91 11.6823 257.91 14.0156C257.91 14.0521 257.883 14.4805 257.828 15.3008H246.891C246.891 16.5951 247.264 17.707 248.012 18.6367C248.759 19.5664 249.798 20.0312 251.129 20.0312C252.022 20.0312 252.815 19.8125 253.508 19.375C254.201 18.9375 254.729 18.3724 255.094 17.6797L257.609 18.5273C257.117 19.6758 256.315 20.6237 255.203 21.3711C254.109 22.1185 252.742 22.4922 251.102 22.4922C248.951 22.4922 247.201 21.7448 245.852 20.25C244.521 18.737 243.855 16.7227 243.855 14.207ZM246.945 13.1406H254.848C254.848 11.8464 254.501 10.7526 253.809 9.85938C253.116 8.96615 252.168 8.51953 250.965 8.51953C249.743 8.51953 248.777 8.97526 248.066 9.88672C247.355 10.7982 246.982 11.8828 246.945 13.1406ZM268.301 22V0.753906H281.617V3.43359H271.418V10.0234H280.578V12.6484H271.418V22H268.301ZM283.996 22V6.57812H286.867V8.4375C287.177 7.83594 287.669 7.29818 288.344 6.82422C289.018 6.33203 289.829 6.08594 290.777 6.08594C291.616 6.08594 292.299 6.20443 292.828 6.44141V9.20312C292.227 8.96615 291.543 8.84766 290.777 8.84766C289.574 8.84766 288.645 9.3125 287.988 10.2422C287.35 11.1536 287.031 12.375 287.031 13.9062V22H283.996ZM296.875 14.2891C296.875 16.1302 297.267 17.5339 298.051 18.5C298.835 19.4661 299.773 19.9492 300.867 19.9492C301.943 19.9492 302.872 19.4661 303.656 18.5C304.458 17.5339 304.859 16.1302 304.859 14.2891C304.859 12.4297 304.458 11.026 303.656 10.0781C302.872 9.13021 301.943 8.65625 300.867 8.65625C299.792 8.65625 298.853 9.13021 298.051 10.0781C297.267 11.026 296.875 12.4297 296.875 14.2891ZM293.812 14.2891C293.812 12.7943 294.049 11.4453 294.523 10.2422C295.016 9.03906 295.809 8.04557 296.902 7.26172C297.996 6.47786 299.318 6.08594 300.867 6.08594C303.146 6.08594 304.887 6.87891 306.09 8.46484C307.311 10.0326 307.922 11.974 307.922 14.2891C307.922 15.237 307.803 16.1667 307.566 17.0781C307.329 17.9714 306.947 18.8372 306.418 19.6758C305.908 20.5143 305.169 21.1979 304.203 21.7266C303.255 22.237 302.143 22.4922 300.867 22.4922C299.591 22.4922 298.479 22.2461 297.531 21.7539C296.583 21.2435 295.845 20.5781 295.316 19.7578C294.806 18.9193 294.423 18.0443 294.168 17.1328C293.931 16.2214 293.812 15.2734 293.812 14.2891ZM310.957 22V6.57812H313.883V8.54688C314.156 7.96354 314.648 7.40755 315.359 6.87891C316.07 6.35026 316.936 6.08594 317.957 6.08594C319.707 6.08594 320.974 7.07943 321.758 9.06641C321.867 8.82943 322.022 8.57422 322.223 8.30078C322.441 8.00911 322.733 7.6901 323.098 7.34375C323.48 6.97917 323.964 6.67839 324.547 6.44141C325.148 6.20443 325.805 6.08594 326.516 6.08594C329.633 6.08594 331.191 8.08203 331.191 12.0742V22H328.129V12.2109C328.129 11.026 327.965 10.1419 327.637 9.55859C327.327 8.95703 326.734 8.65625 325.859 8.65625C324.893 8.65625 324.1 9.05729 323.48 9.85938C322.861 10.6615 322.551 11.6641 322.551 12.8672V22H319.57V12.1289C319.57 9.8138 318.796 8.65625 317.246 8.65625C316.225 8.65625 315.423 9.03906 314.84 9.80469C314.275 10.5521 313.992 11.5456 313.992 12.7852V22H310.957Z" fill="#F4F4F4"/>
<path d="M53.0312 216V201.371H61.8984V202.699H54.5938V207.973H61.1562V209.281H54.5938V216H53.0312ZM64.5547 210.746C64.5547 212.074 64.8607 213.129 65.4727 213.91C66.0846 214.691 66.8464 215.082 67.7578 215.082C68.6562 215.082 69.4115 214.691 70.0234 213.91C70.6484 213.129 70.9609 212.074 70.9609 210.746C70.9609 209.392 70.6484 208.331 70.0234 207.562C69.3984 206.794 68.6432 206.41 67.7578 206.41C66.8594 206.41 66.0977 206.794 65.4727 207.562C64.8607 208.331 64.5547 209.392 64.5547 210.746ZM63.0312 210.746C63.0312 209.145 63.4414 207.81 64.2617 206.742C65.0951 205.674 66.2604 205.141 67.7578 205.141C69.2422 205.141 70.401 205.674 71.2344 206.742C72.0677 207.81 72.4844 209.145 72.4844 210.746C72.4844 211.423 72.3932 212.081 72.2109 212.719C72.0417 213.357 71.7747 213.956 71.4102 214.516C71.0586 215.062 70.5638 215.505 69.9258 215.844C69.3008 216.182 68.5781 216.352 67.7578 216.352C66.9505 216.352 66.2279 216.189 65.5898 215.863C64.9648 215.525 64.4701 215.082 64.1055 214.535C63.7539 213.975 63.487 213.376 63.3047 212.738C63.1224 212.1 63.0312 211.436 63.0312 210.746ZM75.1406 216V200.824H76.625V216H75.1406ZM79.2812 210.727C79.2812 208.995 79.6979 207.634 80.5312 206.645C81.3646 205.642 82.4193 205.141 83.6953 205.141C84.4635 205.141 85.1276 205.362 85.6875 205.805C86.2604 206.247 86.6641 206.755 86.8984 207.328V200.824H88.3828V216H86.9375V214.105C86.6641 214.757 86.2409 215.297 85.668 215.727C85.1081 216.143 84.4505 216.352 83.6953 216.352C83.1615 216.352 82.6406 216.241 82.1328 216.02C81.638 215.811 81.1693 215.499 80.7266 215.082C80.2969 214.652 79.9453 214.066 79.6719 213.324C79.4115 212.569 79.2812 211.703 79.2812 210.727ZM80.8047 210.727C80.8047 212.042 81.0911 213.096 81.6641 213.891C82.237 214.685 82.9792 215.082 83.8906 215.082C84.737 215.082 85.4531 214.691 86.0391 213.91C86.638 213.116 86.9375 212.055 86.9375 210.727C86.9375 209.411 86.638 208.363 86.0391 207.582C85.4531 206.801 84.737 206.41 83.8906 206.41C82.9661 206.41 82.2174 206.807 81.6445 207.602C81.0846 208.383 80.8047 209.424 80.8047 210.727ZM90.9219 210.668C90.9219 209.027 91.3646 207.699 92.25 206.684C93.1354 205.655 94.2812 205.141 95.6875 205.141C97.1198 205.141 98.2461 205.642 99.0664 206.645C99.8867 207.634 100.297 208.904 100.297 210.453C100.297 210.635 100.284 210.896 100.258 211.234H92.4453C92.4453 212.289 92.7383 213.194 93.3242 213.949C93.9102 214.704 94.724 215.082 95.7656 215.082C96.4427 215.082 97.0417 214.926 97.5625 214.613C98.0833 214.288 98.487 213.858 98.7734 213.324L100.062 213.715C99.737 214.483 99.2096 215.115 98.4805 215.609C97.7513 216.104 96.8464 216.352 95.7656 216.352C94.3073 216.352 93.1354 215.831 92.25 214.789C91.3646 213.747 90.9219 212.374 90.9219 210.668ZM92.4844 210.082H98.7734C98.7734 209.053 98.4935 208.188 97.9336 207.484C97.3737 206.768 96.625 206.41 95.6875 206.41C94.737 206.41 93.9688 206.775 93.3828 207.504C92.8099 208.233 92.5104 209.092 92.4844 210.082ZM102.68 216V205.492H104.125V207.016C104.333 206.547 104.678 206.117 105.16 205.727C105.642 205.336 106.26 205.141 107.016 205.141C107.576 205.141 108.07 205.232 108.5 205.414V206.781C108.031 206.599 107.536 206.508 107.016 206.508C106.13 206.508 105.44 206.84 104.945 207.504C104.451 208.168 104.203 209.047 104.203 210.141V216H102.68Z" fill="#F4F4F4"/>
<rect y="64" width="160" height="120" rx="16" fill="#1E1E1E"/>
<g filter="url(#filter0_di_125_741)">
<path d="M91.8101 128.214C91.8101 129.948 90.7201 131.752 88.4719 133.205C86.241 134.647 83.056 135.595 79.45 135.595C75.844 135.595 72.659 134.647 70.4281 133.205C68.1799 131.752 67.09 129.948 67.09 128.214C67.09 126.479 68.1799 124.675 70.4281 123.222C72.659 121.78 75.844 120.832 79.45 120.832C83.056 120.832 86.241 121.78 88.4719 123.222C90.7201 124.675 91.8101 126.479 91.8101 128.214Z" stroke="#F4F4F4" stroke-width="3.43335"/>
<path fill-rule="evenodd" clip-rule="evenodd" d="M67.786 133.261C67.1602 133.755 66.5829 134.287 66.0601 134.854C66.6905 135.79 67.4718 136.651 68.3781 137.418C67.7036 138.288 67.4333 139.139 67.4333 139.872C67.4333 141.118 68.2163 142.709 70.4433 144.153C72.6368 145.575 75.8723 146.567 79.6217 146.567C83.3711 146.567 86.6066 145.575 88.8002 144.153C91.0272 142.709 91.8101 141.118 91.8101 139.872C91.8101 139.069 91.4855 138.124 90.6597 137.167C91.5156 136.401 92.2504 135.547 92.8401 134.624C91.9492 133.7 90.9108 132.872 89.7531 132.162C93.1129 134.02 95.2434 136.784 95.2434 139.872C95.2434 145.465 88.2494 150 79.6217 150C70.9941 150 64 145.465 64 139.872C64 137.345 65.4266 135.035 67.786 133.261ZM88.1976 135.226C85.9702 133.773 83.0306 132.833 79.5587 132.833C75.5212 132.833 72.2037 134.104 69.8887 135.975C70.0627 135.846 70.2474 135.718 70.4433 135.591C72.6368 134.169 75.8723 133.177 79.6217 133.177C83.0414 133.177 86.0336 134.002 88.1976 135.226Z" fill="#F4F4F4"/>
<path d="M91.8101 127.87V98.0001" stroke="#F4F4F4" stroke-width="3.43335" stroke-linejoin="round"/>
</g>
<path d="M312.031 216V201.371H314.062L317.266 209.242C317.474 209.789 317.754 210.538 318.105 211.488C318.47 212.426 318.659 212.914 318.672 212.953H318.75C318.828 212.758 319.303 211.521 320.176 209.242L323.359 201.371H325.43V216H323.867V207.738C323.867 206.684 323.932 205.206 324.062 203.305H323.984L323.242 205.258L319.414 214.906H318.047L314.219 205.258L313.438 203.305H313.359C313.516 205.401 313.594 206.879 313.594 207.738V216H312.031ZM327.598 205.492H329.355L331.523 211.645C331.849 212.556 332.142 213.441 332.402 214.301H332.48C332.676 213.663 332.962 212.777 333.34 211.645L335.41 205.492H337.129L332.598 217.758C332.207 218.799 331.751 219.529 331.23 219.945C330.723 220.375 330.098 220.59 329.355 220.59H328.77V219.34H329.121C329.616 219.34 330.033 219.197 330.371 218.91C330.723 218.624 331.035 218.109 331.309 217.367L331.699 216.137L327.598 205.492ZM344.18 216V201.371H348.125C350.234 201.371 351.895 201.996 353.105 203.246C354.316 204.483 354.922 206.299 354.922 208.695C354.922 210.974 354.336 212.764 353.164 214.066C351.992 215.355 350.299 216 348.086 216H344.18ZM345.742 214.672H347.852C349.544 214.672 350.879 214.197 351.855 213.246C352.832 212.283 353.32 210.766 353.32 208.695C353.32 206.599 352.832 205.076 351.855 204.125C350.879 203.174 349.557 202.699 347.891 202.699H345.742V214.672ZM356.699 210.668C356.699 209.027 357.142 207.699 358.027 206.684C358.913 205.655 360.059 205.141 361.465 205.141C362.897 205.141 364.023 205.642 364.844 206.645C365.664 207.634 366.074 208.904 366.074 210.453C366.074 210.635 366.061 210.896 366.035 211.234H358.223C358.223 212.289 358.516 213.194 359.102 213.949C359.688 214.704 360.501 215.082 361.543 215.082C362.22 215.082 362.819 214.926 363.34 214.613C363.861 214.288 364.264 213.858 364.551 213.324L365.84 213.715C365.514 214.483 364.987 215.115 364.258 215.609C363.529 216.104 362.624 216.352 361.543 216.352C360.085 216.352 358.913 215.831 358.027 214.789C357.142 213.747 356.699 212.374 356.699 210.668ZM358.262 210.082H364.551C364.551 209.053 364.271 208.188 363.711 207.484C363.151 206.768 362.402 206.41 361.465 206.41C360.514 206.41 359.746 206.775 359.16 207.504C358.587 208.233 358.288 209.092 358.262 210.082ZM367.598 213.93L368.73 213.266C369.499 214.477 370.54 215.082 371.855 215.082C372.65 215.082 373.281 214.939 373.75 214.652C374.232 214.366 374.473 213.949 374.473 213.402C374.473 213.168 374.414 212.96 374.297 212.777C374.18 212.582 374.049 212.426 373.906 212.309C373.776 212.178 373.535 212.042 373.184 211.898C372.832 211.742 372.539 211.632 372.305 211.566C372.083 211.488 371.712 211.365 371.191 211.195C370.736 211.052 370.345 210.909 370.02 210.766C369.694 210.622 369.355 210.434 369.004 210.199C368.652 209.952 368.379 209.652 368.184 209.301C368.001 208.949 367.91 208.546 367.91 208.09C367.91 207.217 368.262 206.508 368.965 205.961C369.668 205.414 370.632 205.141 371.855 205.141C372.715 205.141 373.503 205.368 374.219 205.824C374.935 206.28 375.449 206.814 375.762 207.426L374.746 208.09C374.473 207.634 374.076 207.243 373.555 206.918C373.047 206.579 372.48 206.41 371.855 206.41C371.061 206.41 370.456 206.566 370.039 206.879C369.635 207.178 369.434 207.589 369.434 208.109C369.434 208.409 369.512 208.682 369.668 208.93C369.824 209.164 370.059 209.372 370.371 209.555C370.697 209.724 370.99 209.861 371.25 209.965C371.523 210.056 371.882 210.173 372.324 210.316C372.702 210.434 373.034 210.544 373.32 210.648C373.62 210.753 373.945 210.896 374.297 211.078C374.648 211.26 374.941 211.456 375.176 211.664C375.41 211.859 375.605 212.113 375.762 212.426C375.918 212.725 375.996 213.051 375.996 213.402C375.996 214.236 375.625 214.939 374.883 215.512C374.154 216.072 373.145 216.352 371.855 216.352C370.918 216.352 370.085 216.143 369.355 215.727C368.626 215.297 368.04 214.698 367.598 213.93ZM378.398 216V200.824H379.922V210.766L384.492 205.492H386.484L382.734 209.691L386.914 216H385.078L381.758 210.746L379.922 212.797V216H378.398ZM387.188 206.762V205.492H389.023V202.133H390.547V205.492H393.32V206.762H390.547V212.914C390.547 213.565 390.671 214.027 390.918 214.301C391.165 214.574 391.562 214.711 392.109 214.711H393.32V216H391.914C389.987 216 389.023 215.017 389.023 213.051V206.762H387.188ZM396.309 210.746C396.309 212.074 396.615 213.129 397.227 213.91C397.839 214.691 398.6 215.082 399.512 215.082C400.41 215.082 401.165 214.691 401.777 213.91C402.402 213.129 402.715 212.074 402.715 210.746C402.715 209.392 402.402 208.331 401.777 207.562C401.152 206.794 400.397 206.41 399.512 206.41C398.613 206.41 397.852 206.794 397.227 207.562C396.615 208.331 396.309 209.392 396.309 210.746ZM394.785 210.746C394.785 209.145 395.195 207.81 396.016 206.742C396.849 205.674 398.014 205.141 399.512 205.141C400.996 205.141 402.155 205.674 402.988 206.742C403.822 207.81 404.238 209.145 404.238 210.746C404.238 211.423 404.147 212.081 403.965 212.719C403.796 213.357 403.529 213.956 403.164 214.516C402.812 215.062 402.318 215.505 401.68 215.844C401.055 216.182 400.332 216.352 399.512 216.352C398.704 216.352 397.982 216.189 397.344 215.863C396.719 215.525 396.224 215.082 395.859 214.535C395.508 213.975 395.241 213.376 395.059 212.738C394.876 212.1 394.785 211.436 394.785 210.746ZM408.262 210.727C408.262 212.029 408.529 213.083 409.062 213.891C409.596 214.685 410.332 215.082 411.27 215.082C412.155 215.082 412.891 214.691 413.477 213.91C414.062 213.129 414.355 212.068 414.355 210.727C414.355 209.464 414.076 208.428 413.516 207.621C412.969 206.814 412.22 206.41 411.27 206.41C410.384 206.41 409.661 206.82 409.102 207.641C408.542 208.448 408.262 209.477 408.262 210.727ZM406.777 220.59V205.492H408.223V207.387C408.522 206.71 408.952 206.169 409.512 205.766C410.085 205.349 410.736 205.141 411.465 205.141C412.741 205.141 413.796 205.648 414.629 206.664C415.462 207.68 415.879 209.034 415.879 210.727C415.879 212.536 415.443 213.93 414.57 214.906C413.698 215.87 412.663 216.352 411.465 216.352C410.684 216.352 410.02 216.15 409.473 215.746C408.926 215.329 408.522 214.809 408.262 214.184V220.59H406.777Z" fill="#F4F4F4"/>
<rect x="284" y="64" width="160" height="120" rx="16" fill="#1E1E1E"/>
<path d="M384 102H344C342.409 102 340.883 102.632 339.757 103.757C338.632 104.883 338 106.409 338 108V136C338 137.591 338.632 139.117 339.757 140.243C340.883 141.368 342.409 142 344 142H362V146H356C355.47 146 354.961 146.211 354.586 146.586C354.211 146.961 354 147.47 354 148C354 148.53 354.211 149.039 354.586 149.414C354.961 149.789 355.47 150 356 150H372C372.53 150 373.039 149.789 373.414 149.414C373.789 149.039 374 148.53 374 148C374 147.47 373.789 146.961 373.414 146.586C373.039 146.211 372.53 146 372 146H366V142H384C385.591 142 387.117 141.368 388.243 140.243C389.368 139.117 390 137.591 390 136V108C390 106.409 389.368 104.883 388.243 103.757C387.117 102.632 385.591 102 384 102ZM344 106H384C384.53 106 385.039 106.211 385.414 106.586C385.789 106.961 386 107.47 386 108V128H342V108C342 107.47 342.211 106.961 342.586 106.586C342.961 106.211 343.47 106 344 106ZM384 138H344C343.47 138 342.961 137.789 342.586 137.414C342.211 137.039 342 136.53 342 136V132H386V136C386 136.53 385.789 137.039 385.414 137.414C385.039 137.789 384.53 138 384 138Z" fill="#F4F4F4"/>
<defs>
<filter id="filter0_di_125_741" x="62.5535" y="96.8639" width="34.1363" height="55.1613" filterUnits="userSpaceOnUse" color-interpolation-filters="sRGB">
<feFlood flood-opacity="0" result="BackgroundImageFix"/>
<feColorMatrix in="SourceAlpha" type="matrix" values="0 0 0 0 0 0 0 0 0 0 0 0 0 0 0 0 0 0 127 0" result="hardAlpha"/>
<feOffset dy="0.578582"/>
<feGaussianBlur stdDeviation="0.723228"/>
<feComposite in2="hardAlpha" operator="out"/>
<feColorMatrix type="matrix" values="0 0 0 0 1 0 0 0 0 1 0 0 0 0 1 0 0 0 0.12 0"/>
<feBlend mode="normal" in2="BackgroundImageFix" result="effect1_dropShadow_125_741"/>
<feBlend mode="normal" in="SourceGraphic" in2="effect1_dropShadow_125_741" result="shape"/>
<feColorMatrix in="SourceAlpha" type="matrix" values="0 0 0 0 0 0 0 0 0 0 0 0 0 0 0 0 0 0 127 0" result="hardAlpha"/>
<feOffset dy="-1.13613"/>
<feGaussianBlur stdDeviation="1.13613"/>
<feComposite in2="hardAlpha" operator="arithmetic" k2="-1" k3="1"/>
<feColorMatrix type="matrix" values="0 0 0 0 0 0 0 0 0 0 0 0 0 0 0 0 0 0 0.25 0"/>
<feBlend mode="normal" in2="shape" result="effect2_innerShadow_125_741"/>
</filter>
</defs>
</svg>
