<svg width="153" height="43" viewBox="0 0 153 43" fill="none" xmlns="http://www.w3.org/2000/svg">
<path d="M1.70833 4.55556C1.70833 2.98308 2.98308 1.70833 4.55556 1.70833H23.9167C25.4891 1.70833 26.7639 2.98308 26.7639 4.55555V12.3491C26.7639 13.1043 26.4639 13.8285 25.93 14.3624L15.5013 24.7911C14.9674 25.325 14.2432 25.625 13.488 25.625H4.55556C2.98308 25.625 1.70833 24.3503 1.70833 22.7778V4.55556Z" stroke="#BAEF58" stroke-width="3.41667"/>
<path d="M14.2362 27.512C14.2362 26.7569 14.5361 26.0327 15.0701 25.4987L25.4987 15.0701C26.0327 14.5361 26.7569 14.2362 27.512 14.2362H36.4445C38.017 14.2362 39.2917 15.5109 39.2917 17.0834V37.5834C39.2917 39.1559 38.017 40.4306 36.4445 40.4306H17.0834C15.5109 40.4306 14.2362 39.1559 14.2362 37.5834V27.512Z" fill="#BAEF58" fill-opacity="0.2" stroke="#BAEF58" stroke-width="3.41667"/>
<rect x="6.83374" y="9.11084" width="13.6667" height="1.70833" fill="#BAEF58"/>
<rect x="12.5281" y="9.11084" width="3.41667" height="1.70833" transform="rotate(-90 12.5281 9.11084)" fill="#BAEF58"/>
<path d="M7.40308 17.6528C11.1994 17.463 18.4503 15.7167 17.0836 10.25" stroke="#BAEF58" stroke-width="1.70833"/>
<path d="M16.3452 18.7917C12.5489 18.6019 9.51188 15.9445 9.11149 12.5278" stroke="#BAEF58" stroke-width="1.70833"/>
<path d="M29.1306 30.0582H25.0278L24.3701 32H21.567L25.5445 21.0069H28.6452L32.6227 32H29.7883L29.1306 30.0582ZM28.4416 27.9911L27.0792 23.9666L25.7325 27.9911H28.4416Z" fill="#BAEF58"/>
<path d="M53.7273 28.0693V15.7893H49.5873V14.0693H59.9673V15.7893H55.8473V28.0693H53.7273ZM60.8166 28.0693V18.1493H62.7166L62.8966 20.0293C63.2432 19.376 63.7232 18.8627 64.3366 18.4893C64.9632 18.1027 65.7166 17.9093 66.5966 17.9093V20.1293H66.0166C65.4299 20.1293 64.9032 20.2293 64.4366 20.4293C63.9832 20.616 63.6166 20.9427 63.3366 21.4093C63.0699 21.8627 62.9366 22.496 62.9366 23.3093V28.0693H60.8166ZM71.7742 28.3093C70.9342 28.3093 70.2409 28.1693 69.6942 27.8893C69.1476 27.6093 68.7409 27.2427 68.4742 26.7893C68.2076 26.3227 68.0742 25.816 68.0742 25.2693C68.0742 24.3093 68.4476 23.5493 69.1942 22.9893C69.9409 22.4293 71.0076 22.1493 72.3942 22.1493H74.9942V21.9693C74.9942 21.196 74.7809 20.616 74.3542 20.2293C73.9409 19.8427 73.4009 19.6493 72.7342 19.6493C72.1476 19.6493 71.6342 19.796 71.1942 20.0893C70.7676 20.3693 70.5076 20.7893 70.4142 21.3493H68.2942C68.3609 20.6293 68.6009 20.016 69.0142 19.5093C69.4409 18.9893 69.9742 18.596 70.6142 18.3293C71.2676 18.0493 71.9809 17.9093 72.7542 17.9093C74.1409 17.9093 75.2142 18.276 75.9742 19.0093C76.7342 19.7293 77.1142 20.716 77.1142 21.9693V28.0693H75.2742L75.0942 26.3693C74.8142 26.916 74.4076 27.376 73.8742 27.7493C73.3409 28.1227 72.6409 28.3093 71.7742 28.3093ZM72.1942 26.5893C72.7676 26.5893 73.2476 26.456 73.6342 26.1893C74.0342 25.9093 74.3409 25.5427 74.5542 25.0893C74.7809 24.636 74.9209 24.136 74.9742 23.5893H72.6142C71.7742 23.5893 71.1742 23.736 70.8142 24.0293C70.4676 24.3227 70.2942 24.6893 70.2942 25.1293C70.2942 25.5827 70.4609 25.9427 70.7942 26.2093C71.1409 26.4627 71.6076 26.5893 72.1942 26.5893ZM79.5861 28.0693V18.1493H81.4661L81.6261 19.8893C81.9328 19.276 82.3794 18.796 82.9661 18.4493C83.5661 18.0893 84.2528 17.9093 85.0261 17.9093C86.2261 17.9093 87.1661 18.2827 87.8461 19.0293C88.5394 19.776 88.8861 20.8893 88.8861 22.3693V28.0693H86.7861V22.5893C86.7861 20.6693 85.9994 19.7093 84.4261 19.7093C83.6394 19.7093 82.9861 19.9893 82.4661 20.5493C81.9594 21.1093 81.7061 21.9093 81.7061 22.9493V28.0693H79.5861ZM95.343 28.3093C94.0896 28.3093 93.0563 28.0027 92.243 27.3893C91.4296 26.776 90.963 25.9627 90.843 24.9493H92.983C93.0896 25.4027 93.343 25.796 93.743 26.1293C94.143 26.4493 94.6696 26.6093 95.323 26.6093C95.963 26.6093 96.4296 26.476 96.723 26.2093C97.0163 25.9427 97.163 25.636 97.163 25.2893C97.163 24.7827 96.9563 24.4427 96.543 24.2693C96.143 24.0827 95.583 23.916 94.863 23.7693C94.303 23.6493 93.743 23.4893 93.183 23.2893C92.6363 23.0893 92.1763 22.8093 91.803 22.4493C91.443 22.076 91.263 21.576 91.263 20.9493C91.263 20.0827 91.5963 19.3627 92.263 18.7893C92.9296 18.2027 93.863 17.9093 95.063 17.9093C96.1696 17.9093 97.063 18.176 97.743 18.7093C98.4363 19.2427 98.843 19.996 98.963 20.9693H96.923C96.8563 20.5427 96.6563 20.2093 96.323 19.9693C96.003 19.7293 95.5696 19.6093 95.023 19.6093C94.4896 19.6093 94.0763 19.7227 93.783 19.9493C93.4896 20.1627 93.343 20.4427 93.343 20.7893C93.343 21.136 93.543 21.4093 93.943 21.6093C94.3563 21.8093 94.8963 21.9893 95.563 22.1493C96.2296 22.296 96.843 22.4693 97.403 22.6693C97.9763 22.856 98.4363 23.136 98.783 23.5093C99.1296 23.8827 99.303 24.4293 99.303 25.1493C99.3163 26.056 98.963 26.8093 98.243 27.4093C97.5363 28.0093 96.5696 28.3093 95.343 28.3093ZM101.617 28.0693V13.6693H103.737V28.0693H101.617ZM109.782 28.3093C108.942 28.3093 108.249 28.1693 107.702 27.8893C107.155 27.6093 106.749 27.2427 106.482 26.7893C106.215 26.3227 106.082 25.816 106.082 25.2693C106.082 24.3093 106.455 23.5493 107.202 22.9893C107.949 22.4293 109.015 22.1493 110.402 22.1493H113.002V21.9693C113.002 21.196 112.789 20.616 112.362 20.2293C111.949 19.8427 111.409 19.6493 110.742 19.6493C110.155 19.6493 109.642 19.796 109.202 20.0893C108.775 20.3693 108.515 20.7893 108.422 21.3493H106.302C106.369 20.6293 106.609 20.016 107.022 19.5093C107.449 18.9893 107.982 18.596 108.622 18.3293C109.275 18.0493 109.989 17.9093 110.762 17.9093C112.149 17.9093 113.222 18.276 113.982 19.0093C114.742 19.7293 115.122 20.716 115.122 21.9693V28.0693H113.282L113.102 26.3693C112.822 26.916 112.415 27.376 111.882 27.7493C111.349 28.1227 110.649 28.3093 109.782 28.3093ZM110.202 26.5893C110.775 26.5893 111.255 26.456 111.642 26.1893C112.042 25.9093 112.349 25.5427 112.562 25.0893C112.789 24.636 112.929 24.136 112.982 23.5893H110.622C109.782 23.5893 109.182 23.736 108.822 24.0293C108.475 24.3227 108.302 24.6893 108.302 25.1293C108.302 25.5827 108.469 25.9427 108.802 26.2093C109.149 26.4627 109.615 26.5893 110.202 26.5893ZM121.559 28.0693C120.585 28.0693 119.812 27.836 119.239 27.3693C118.665 26.8893 118.379 26.0427 118.379 24.8293V19.9293H116.679V18.1493H118.379L118.639 15.6293H120.499V18.1493H123.299V19.9293H120.499V24.8293C120.499 25.376 120.612 25.756 120.839 25.9693C121.079 26.1693 121.485 26.2693 122.059 26.2693H123.199V28.0693H121.559ZM126.685 16.2693C126.285 16.2693 125.951 16.1493 125.685 15.9093C125.431 15.656 125.305 15.3427 125.305 14.9693C125.305 14.596 125.431 14.2893 125.685 14.0493C125.951 13.796 126.285 13.6693 126.685 13.6693C127.085 13.6693 127.411 13.796 127.665 14.0493C127.931 14.2893 128.065 14.596 128.065 14.9693C128.065 15.3427 127.931 15.656 127.665 15.9093C127.411 16.1493 127.085 16.2693 126.685 16.2693ZM125.625 28.0693V18.1493H127.745V28.0693H125.625ZM135.183 28.3093C134.236 28.3093 133.383 28.096 132.623 27.6693C131.876 27.2293 131.283 26.6227 130.843 25.8493C130.403 25.0627 130.183 24.1493 130.183 23.1093C130.183 22.0693 130.403 21.1627 130.843 20.3893C131.296 19.6027 131.903 18.996 132.663 18.5693C133.423 18.1293 134.27 17.9093 135.203 17.9093C136.15 17.9093 136.996 18.1293 137.743 18.5693C138.503 18.996 139.103 19.6027 139.543 20.3893C139.996 21.1627 140.223 22.0693 140.223 23.1093C140.223 24.1493 139.996 25.0627 139.543 25.8493C139.103 26.6227 138.503 27.2293 137.743 27.6693C136.983 28.096 136.13 28.3093 135.183 28.3093ZM135.183 26.4893C135.69 26.4893 136.156 26.3627 136.583 26.1093C137.023 25.856 137.376 25.4827 137.643 24.9893C137.91 24.4827 138.043 23.856 138.043 23.1093C138.043 22.3627 137.91 21.7427 137.643 21.2493C137.39 20.7427 137.043 20.3627 136.603 20.1093C136.176 19.856 135.71 19.7293 135.203 19.7293C134.696 19.7293 134.223 19.856 133.783 20.1093C133.356 20.3627 133.01 20.7427 132.743 21.2493C132.476 21.7427 132.343 22.3627 132.343 23.1093C132.343 23.856 132.476 24.4827 132.743 24.9893C133.01 25.4827 133.356 25.856 133.783 26.1093C134.21 26.3627 134.676 26.4893 135.183 26.4893ZM142.516 28.0693V18.1493H144.396L144.556 19.8893C144.862 19.276 145.309 18.796 145.896 18.4493C146.496 18.0893 147.182 17.9093 147.956 17.9093C149.156 17.9093 150.096 18.2827 150.776 19.0293C151.469 19.776 151.816 20.8893 151.816 22.3693V28.0693H149.716V22.5893C149.716 20.6693 148.929 19.7093 147.356 19.7093C146.569 19.7093 145.916 19.9893 145.396 20.5493C144.889 21.1093 144.636 21.9093 144.636 22.9493V28.0693H142.516Z" fill="#BAEF58"/>
</svg>
