<svg width="644" height="423" viewBox="0 0 644 423" fill="none" xmlns="http://www.w3.org/2000/svg">
<rect x="1.2" y="1.2" width="641.6" height="420.91" rx="28.3862" fill="#111111" stroke="#F4F4F4" stroke-width="1.6" stroke-dasharray="16.55 11.03"/>
<path d="M212.988 116.152V102.754H216.133V116.125C216.133 118.039 216.543 119.47 217.363 120.418C218.202 121.348 219.323 121.812 220.727 121.812C222.167 121.812 223.297 121.329 224.117 120.363C224.938 119.397 225.348 117.984 225.348 116.125V102.754H228.492V116.152C228.492 118.796 227.836 120.846 226.523 122.305C225.211 123.763 223.279 124.492 220.727 124.492C218.266 124.492 216.361 123.79 215.012 122.387C213.663 120.965 212.988 118.887 212.988 116.152ZM236.039 116.262C236.039 117.975 236.376 119.352 237.051 120.391C237.725 121.43 238.655 121.949 239.84 121.949C240.97 121.949 241.891 121.448 242.602 120.445C243.331 119.424 243.695 118.03 243.695 116.262C243.695 114.566 243.349 113.208 242.656 112.188C241.982 111.167 241.043 110.656 239.84 110.656C238.673 110.656 237.743 111.176 237.051 112.215C236.376 113.254 236.039 114.603 236.039 116.262ZM233.086 130.426V108.578H235.957V110.82C236.358 110.018 236.932 109.362 237.68 108.852C238.427 108.341 239.284 108.086 240.25 108.086C242.128 108.086 243.686 108.824 244.926 110.301C246.165 111.777 246.785 113.764 246.785 116.262C246.785 117.647 246.585 118.887 246.184 119.98C245.801 121.074 245.29 121.94 244.652 122.578C244.014 123.216 243.322 123.69 242.574 124C241.827 124.328 241.052 124.492 240.25 124.492C239.211 124.492 238.336 124.246 237.625 123.754C236.914 123.243 236.395 122.633 236.066 121.922V130.426H233.086ZM250.121 124V102.016H253.129V124H250.121ZM259.527 116.289C259.527 118.13 259.919 119.534 260.703 120.5C261.487 121.466 262.426 121.949 263.52 121.949C264.595 121.949 265.525 121.466 266.309 120.5C267.111 119.534 267.512 118.13 267.512 116.289C267.512 114.43 267.111 113.026 266.309 112.078C265.525 111.13 264.595 110.656 263.52 110.656C262.444 110.656 261.505 111.13 260.703 112.078C259.919 113.026 259.527 114.43 259.527 116.289ZM256.465 116.289C256.465 114.794 256.702 113.445 257.176 112.242C257.668 111.039 258.461 110.046 259.555 109.262C260.648 108.478 261.97 108.086 263.52 108.086C265.798 108.086 267.539 108.879 268.742 110.465C269.964 112.033 270.574 113.974 270.574 116.289C270.574 117.237 270.456 118.167 270.219 119.078C269.982 119.971 269.599 120.837 269.07 121.676C268.56 122.514 267.822 123.198 266.855 123.727C265.908 124.237 264.796 124.492 263.52 124.492C262.243 124.492 261.132 124.246 260.184 123.754C259.236 123.243 258.497 122.578 257.969 121.758C257.458 120.919 257.076 120.044 256.82 119.133C256.583 118.221 256.465 117.273 256.465 116.289ZM275.688 119.789C275.688 120.409 275.934 120.928 276.426 121.348C276.936 121.767 277.62 121.977 278.477 121.977C279.643 121.977 280.637 121.603 281.457 120.855C282.277 120.09 282.688 119.096 282.688 117.875V116.207C281.849 116.408 280.746 116.617 279.379 116.836C278.139 117.036 277.21 117.374 276.59 117.848C275.988 118.322 275.688 118.969 275.688 119.789ZM272.625 120.035C272.625 117.155 274.803 115.378 279.16 114.703C280.965 114.43 282.141 114.202 282.688 114.02V113.172C282.688 112.352 282.387 111.704 281.785 111.23C281.202 110.738 280.409 110.492 279.406 110.492C277.638 110.492 276.134 111.212 274.895 112.652L273.035 111.066C273.819 110.137 274.758 109.408 275.852 108.879C276.964 108.35 278.13 108.086 279.352 108.086C283.581 108.086 285.695 110.164 285.695 114.32V124H282.77V121.867C282.46 122.578 281.876 123.198 281.02 123.727C280.163 124.237 279.169 124.492 278.039 124.492C276.362 124.492 275.04 124.082 274.074 123.262C273.108 122.423 272.625 121.348 272.625 120.035ZM288.539 116.262C288.539 113.728 289.15 111.732 290.371 110.273C291.611 108.815 293.178 108.086 295.074 108.086C296.04 108.086 296.888 108.341 297.617 108.852C298.346 109.362 298.884 109.945 299.23 110.602V102.016H302.238V124H299.312V121.758C298.966 122.523 298.41 123.171 297.645 123.699C296.897 124.228 296.04 124.492 295.074 124.492C294.272 124.492 293.497 124.337 292.75 124.027C292.021 123.717 291.328 123.253 290.672 122.633C290.034 122.013 289.514 121.156 289.113 120.062C288.73 118.951 288.539 117.684 288.539 116.262ZM291.602 116.262C291.602 118.03 291.957 119.424 292.668 120.445C293.397 121.448 294.336 121.949 295.484 121.949C296.578 121.949 297.48 121.439 298.191 120.418C298.921 119.397 299.285 118.012 299.285 116.262C299.285 114.566 298.93 113.208 298.219 112.188C297.508 111.167 296.596 110.656 295.484 110.656C294.281 110.656 293.333 111.167 292.641 112.188C291.948 113.208 291.602 114.566 291.602 116.262ZM313.777 124V102.754H327.094V105.434H316.895V112.023H326.055V114.648H316.895V124H313.777ZM329.664 105.898V102.453H333.027V105.898H329.664ZM329.883 124V108.578H332.863V124H329.883ZM337.512 124V102.016H340.52V124H337.512ZM343.855 116.207C343.855 113.764 344.521 111.805 345.852 110.328C347.201 108.833 348.905 108.086 350.965 108.086C353.025 108.086 354.693 108.824 355.969 110.301C357.263 111.777 357.91 113.682 357.91 116.016C357.91 116.052 357.883 116.48 357.828 117.301H346.891C346.891 118.595 347.264 119.707 348.012 120.637C348.759 121.566 349.798 122.031 351.129 122.031C352.022 122.031 352.815 121.812 353.508 121.375C354.201 120.938 354.729 120.372 355.094 119.68L357.609 120.527C357.117 121.676 356.315 122.624 355.203 123.371C354.109 124.118 352.742 124.492 351.102 124.492C348.951 124.492 347.201 123.745 345.852 122.25C344.521 120.737 343.855 118.723 343.855 116.207ZM346.945 115.141H354.848C354.848 113.846 354.501 112.753 353.809 111.859C353.116 110.966 352.168 110.52 350.965 110.52C349.743 110.52 348.777 110.975 348.066 111.887C347.355 112.798 346.982 113.883 346.945 115.141ZM368.301 124V102.754H381.617V105.434H371.418V112.023H380.578V114.648H371.418V124H368.301ZM383.996 124V108.578H386.867V110.438C387.177 109.836 387.669 109.298 388.344 108.824C389.018 108.332 389.829 108.086 390.777 108.086C391.616 108.086 392.299 108.204 392.828 108.441V111.203C392.227 110.966 391.543 110.848 390.777 110.848C389.574 110.848 388.645 111.312 387.988 112.242C387.35 113.154 387.031 114.375 387.031 115.906V124H383.996ZM396.875 116.289C396.875 118.13 397.267 119.534 398.051 120.5C398.835 121.466 399.773 121.949 400.867 121.949C401.943 121.949 402.872 121.466 403.656 120.5C404.458 119.534 404.859 118.13 404.859 116.289C404.859 114.43 404.458 113.026 403.656 112.078C402.872 111.13 401.943 110.656 400.867 110.656C399.792 110.656 398.853 111.13 398.051 112.078C397.267 113.026 396.875 114.43 396.875 116.289ZM393.812 116.289C393.812 114.794 394.049 113.445 394.523 112.242C395.016 111.039 395.809 110.046 396.902 109.262C397.996 108.478 399.318 108.086 400.867 108.086C403.146 108.086 404.887 108.879 406.09 110.465C407.311 112.033 407.922 113.974 407.922 116.289C407.922 117.237 407.803 118.167 407.566 119.078C407.329 119.971 406.947 120.837 406.418 121.676C405.908 122.514 405.169 123.198 404.203 123.727C403.255 124.237 402.143 124.492 400.867 124.492C399.591 124.492 398.479 124.246 397.531 123.754C396.583 123.243 395.845 122.578 395.316 121.758C394.806 120.919 394.423 120.044 394.168 119.133C393.931 118.221 393.812 117.273 393.812 116.289ZM410.957 124V108.578H413.883V110.547C414.156 109.964 414.648 109.408 415.359 108.879C416.07 108.35 416.936 108.086 417.957 108.086C419.707 108.086 420.974 109.079 421.758 111.066C421.867 110.829 422.022 110.574 422.223 110.301C422.441 110.009 422.733 109.69 423.098 109.344C423.48 108.979 423.964 108.678 424.547 108.441C425.148 108.204 425.805 108.086 426.516 108.086C429.633 108.086 431.191 110.082 431.191 114.074V124H428.129V114.211C428.129 113.026 427.965 112.142 427.637 111.559C427.327 110.957 426.734 110.656 425.859 110.656C424.893 110.656 424.1 111.057 423.48 111.859C422.861 112.661 422.551 113.664 422.551 114.867V124H419.57V114.129C419.57 111.814 418.796 110.656 417.246 110.656C416.225 110.656 415.423 111.039 414.84 111.805C414.275 112.552 413.992 113.546 413.992 114.785V124H410.957Z" fill="#F4F4F4"/>
<path d="M153.031 318V303.371H161.898V304.699H154.594V309.973H161.156V311.281H154.594V318H153.031ZM164.555 312.746C164.555 314.074 164.861 315.129 165.473 315.91C166.085 316.691 166.846 317.082 167.758 317.082C168.656 317.082 169.411 316.691 170.023 315.91C170.648 315.129 170.961 314.074 170.961 312.746C170.961 311.392 170.648 310.331 170.023 309.562C169.398 308.794 168.643 308.41 167.758 308.41C166.859 308.41 166.098 308.794 165.473 309.562C164.861 310.331 164.555 311.392 164.555 312.746ZM163.031 312.746C163.031 311.145 163.441 309.81 164.262 308.742C165.095 307.674 166.26 307.141 167.758 307.141C169.242 307.141 170.401 307.674 171.234 308.742C172.068 309.81 172.484 311.145 172.484 312.746C172.484 313.423 172.393 314.081 172.211 314.719C172.042 315.357 171.775 315.956 171.41 316.516C171.059 317.062 170.564 317.505 169.926 317.844C169.301 318.182 168.578 318.352 167.758 318.352C166.951 318.352 166.228 318.189 165.59 317.863C164.965 317.525 164.47 317.082 164.105 316.535C163.754 315.975 163.487 315.376 163.305 314.738C163.122 314.1 163.031 313.436 163.031 312.746ZM175.141 318V302.824H176.625V318H175.141ZM179.281 312.727C179.281 310.995 179.698 309.634 180.531 308.645C181.365 307.642 182.419 307.141 183.695 307.141C184.464 307.141 185.128 307.362 185.688 307.805C186.26 308.247 186.664 308.755 186.898 309.328V302.824H188.383V318H186.938V316.105C186.664 316.757 186.241 317.297 185.668 317.727C185.108 318.143 184.451 318.352 183.695 318.352C183.161 318.352 182.641 318.241 182.133 318.02C181.638 317.811 181.169 317.499 180.727 317.082C180.297 316.652 179.945 316.066 179.672 315.324C179.411 314.569 179.281 313.703 179.281 312.727ZM180.805 312.727C180.805 314.042 181.091 315.096 181.664 315.891C182.237 316.685 182.979 317.082 183.891 317.082C184.737 317.082 185.453 316.691 186.039 315.91C186.638 315.116 186.938 314.055 186.938 312.727C186.938 311.411 186.638 310.363 186.039 309.582C185.453 308.801 184.737 308.41 183.891 308.41C182.966 308.41 182.217 308.807 181.645 309.602C181.085 310.383 180.805 311.424 180.805 312.727ZM190.922 312.668C190.922 311.027 191.365 309.699 192.25 308.684C193.135 307.655 194.281 307.141 195.688 307.141C197.12 307.141 198.246 307.642 199.066 308.645C199.887 309.634 200.297 310.904 200.297 312.453C200.297 312.635 200.284 312.896 200.258 313.234H192.445C192.445 314.289 192.738 315.194 193.324 315.949C193.91 316.704 194.724 317.082 195.766 317.082C196.443 317.082 197.042 316.926 197.562 316.613C198.083 316.288 198.487 315.858 198.773 315.324L200.062 315.715C199.737 316.483 199.21 317.115 198.48 317.609C197.751 318.104 196.846 318.352 195.766 318.352C194.307 318.352 193.135 317.831 192.25 316.789C191.365 315.747 190.922 314.374 190.922 312.668ZM192.484 312.082H198.773C198.773 311.053 198.493 310.188 197.934 309.484C197.374 308.768 196.625 308.41 195.688 308.41C194.737 308.41 193.969 308.775 193.383 309.504C192.81 310.233 192.51 311.092 192.484 312.082ZM202.68 318V307.492H204.125V309.016C204.333 308.547 204.678 308.117 205.16 307.727C205.642 307.336 206.26 307.141 207.016 307.141C207.576 307.141 208.07 307.232 208.5 307.414V308.781C208.031 308.599 207.536 308.508 207.016 308.508C206.13 308.508 205.44 308.84 204.945 309.504C204.451 310.168 204.203 311.047 204.203 312.141V318H202.68Z" fill="#F4F4F4"/>
<rect x="100" y="166" width="160" height="120" rx="16" fill="#1E1E1E"/>
<g filter="url(#filter0_di_125_739)">
<path d="M191.81 230.214C191.81 231.948 190.72 233.752 188.472 235.205C186.241 236.647 183.056 237.595 179.45 237.595C175.844 237.595 172.659 236.647 170.428 235.205C168.18 233.752 167.09 231.948 167.09 230.214C167.09 228.479 168.18 226.675 170.428 225.222C172.659 223.78 175.844 222.832 179.45 222.832C183.056 222.832 186.241 223.78 188.472 225.222C190.72 226.675 191.81 228.479 191.81 230.214Z" stroke="#F4F4F4" stroke-width="3.43335"/>
<path fill-rule="evenodd" clip-rule="evenodd" d="M167.786 235.261C167.16 235.755 166.583 236.287 166.06 236.854C166.69 237.79 167.472 238.651 168.378 239.418C167.704 240.288 167.433 241.139 167.433 241.872C167.433 243.118 168.216 244.709 170.443 246.153C172.637 247.575 175.872 248.567 179.622 248.567C183.371 248.567 186.607 247.575 188.8 246.153C191.027 244.709 191.81 243.118 191.81 241.872C191.81 241.069 191.485 240.124 190.66 239.167C191.516 238.401 192.25 237.547 192.84 236.624C191.949 235.7 190.911 234.872 189.753 234.162C193.113 236.02 195.243 238.784 195.243 241.872C195.243 247.465 188.249 252 179.622 252C170.994 252 164 247.465 164 241.872C164 239.345 165.427 237.035 167.786 235.261ZM188.198 237.226C185.97 235.773 183.031 234.833 179.559 234.833C175.521 234.833 172.204 236.104 169.889 237.975C170.063 237.846 170.247 237.718 170.443 237.591C172.637 236.169 175.872 235.177 179.622 235.177C183.041 235.177 186.034 236.002 188.198 237.226Z" fill="#F4F4F4"/>
<path d="M191.81 229.87V200" stroke="#F4F4F4" stroke-width="3.43335" stroke-linejoin="round"/>
</g>
<path d="M412.031 318V303.371H414.062L417.266 311.242C417.474 311.789 417.754 312.538 418.105 313.488C418.47 314.426 418.659 314.914 418.672 314.953H418.75C418.828 314.758 419.303 313.521 420.176 311.242L423.359 303.371H425.43V318H423.867V309.738C423.867 308.684 423.932 307.206 424.062 305.305H423.984L423.242 307.258L419.414 316.906H418.047L414.219 307.258L413.438 305.305H413.359C413.516 307.401 413.594 308.879 413.594 309.738V318H412.031ZM427.598 307.492H429.355L431.523 313.645C431.849 314.556 432.142 315.441 432.402 316.301H432.48C432.676 315.663 432.962 314.777 433.34 313.645L435.41 307.492H437.129L432.598 319.758C432.207 320.799 431.751 321.529 431.23 321.945C430.723 322.375 430.098 322.59 429.355 322.59H428.77V321.34H429.121C429.616 321.34 430.033 321.197 430.371 320.91C430.723 320.624 431.035 320.109 431.309 319.367L431.699 318.137L427.598 307.492ZM444.18 318V303.371H448.125C450.234 303.371 451.895 303.996 453.105 305.246C454.316 306.483 454.922 308.299 454.922 310.695C454.922 312.974 454.336 314.764 453.164 316.066C451.992 317.355 450.299 318 448.086 318H444.18ZM445.742 316.672H447.852C449.544 316.672 450.879 316.197 451.855 315.246C452.832 314.283 453.32 312.766 453.32 310.695C453.32 308.599 452.832 307.076 451.855 306.125C450.879 305.174 449.557 304.699 447.891 304.699H445.742V316.672ZM456.699 312.668C456.699 311.027 457.142 309.699 458.027 308.684C458.913 307.655 460.059 307.141 461.465 307.141C462.897 307.141 464.023 307.642 464.844 308.645C465.664 309.634 466.074 310.904 466.074 312.453C466.074 312.635 466.061 312.896 466.035 313.234H458.223C458.223 314.289 458.516 315.194 459.102 315.949C459.688 316.704 460.501 317.082 461.543 317.082C462.22 317.082 462.819 316.926 463.34 316.613C463.861 316.288 464.264 315.858 464.551 315.324L465.84 315.715C465.514 316.483 464.987 317.115 464.258 317.609C463.529 318.104 462.624 318.352 461.543 318.352C460.085 318.352 458.913 317.831 458.027 316.789C457.142 315.747 456.699 314.374 456.699 312.668ZM458.262 312.082H464.551C464.551 311.053 464.271 310.188 463.711 309.484C463.151 308.768 462.402 308.41 461.465 308.41C460.514 308.41 459.746 308.775 459.16 309.504C458.587 310.233 458.288 311.092 458.262 312.082ZM467.598 315.93L468.73 315.266C469.499 316.477 470.54 317.082 471.855 317.082C472.65 317.082 473.281 316.939 473.75 316.652C474.232 316.366 474.473 315.949 474.473 315.402C474.473 315.168 474.414 314.96 474.297 314.777C474.18 314.582 474.049 314.426 473.906 314.309C473.776 314.178 473.535 314.042 473.184 313.898C472.832 313.742 472.539 313.632 472.305 313.566C472.083 313.488 471.712 313.365 471.191 313.195C470.736 313.052 470.345 312.909 470.02 312.766C469.694 312.622 469.355 312.434 469.004 312.199C468.652 311.952 468.379 311.652 468.184 311.301C468.001 310.949 467.91 310.546 467.91 310.09C467.91 309.217 468.262 308.508 468.965 307.961C469.668 307.414 470.632 307.141 471.855 307.141C472.715 307.141 473.503 307.368 474.219 307.824C474.935 308.28 475.449 308.814 475.762 309.426L474.746 310.09C474.473 309.634 474.076 309.243 473.555 308.918C473.047 308.579 472.48 308.41 471.855 308.41C471.061 308.41 470.456 308.566 470.039 308.879C469.635 309.178 469.434 309.589 469.434 310.109C469.434 310.409 469.512 310.682 469.668 310.93C469.824 311.164 470.059 311.372 470.371 311.555C470.697 311.724 470.99 311.861 471.25 311.965C471.523 312.056 471.882 312.173 472.324 312.316C472.702 312.434 473.034 312.544 473.32 312.648C473.62 312.753 473.945 312.896 474.297 313.078C474.648 313.26 474.941 313.456 475.176 313.664C475.41 313.859 475.605 314.113 475.762 314.426C475.918 314.725 475.996 315.051 475.996 315.402C475.996 316.236 475.625 316.939 474.883 317.512C474.154 318.072 473.145 318.352 471.855 318.352C470.918 318.352 470.085 318.143 469.355 317.727C468.626 317.297 468.04 316.698 467.598 315.93ZM478.398 318V302.824H479.922V312.766L484.492 307.492H486.484L482.734 311.691L486.914 318H485.078L481.758 312.746L479.922 314.797V318H478.398ZM487.188 308.762V307.492H489.023V304.133H490.547V307.492H493.32V308.762H490.547V314.914C490.547 315.565 490.671 316.027 490.918 316.301C491.165 316.574 491.562 316.711 492.109 316.711H493.32V318H491.914C489.987 318 489.023 317.017 489.023 315.051V308.762H487.188ZM496.309 312.746C496.309 314.074 496.615 315.129 497.227 315.91C497.839 316.691 498.6 317.082 499.512 317.082C500.41 317.082 501.165 316.691 501.777 315.91C502.402 315.129 502.715 314.074 502.715 312.746C502.715 311.392 502.402 310.331 501.777 309.562C501.152 308.794 500.397 308.41 499.512 308.41C498.613 308.41 497.852 308.794 497.227 309.562C496.615 310.331 496.309 311.392 496.309 312.746ZM494.785 312.746C494.785 311.145 495.195 309.81 496.016 308.742C496.849 307.674 498.014 307.141 499.512 307.141C500.996 307.141 502.155 307.674 502.988 308.742C503.822 309.81 504.238 311.145 504.238 312.746C504.238 313.423 504.147 314.081 503.965 314.719C503.796 315.357 503.529 315.956 503.164 316.516C502.812 317.062 502.318 317.505 501.68 317.844C501.055 318.182 500.332 318.352 499.512 318.352C498.704 318.352 497.982 318.189 497.344 317.863C496.719 317.525 496.224 317.082 495.859 316.535C495.508 315.975 495.241 315.376 495.059 314.738C494.876 314.1 494.785 313.436 494.785 312.746ZM508.262 312.727C508.262 314.029 508.529 315.083 509.062 315.891C509.596 316.685 510.332 317.082 511.27 317.082C512.155 317.082 512.891 316.691 513.477 315.91C514.062 315.129 514.355 314.068 514.355 312.727C514.355 311.464 514.076 310.428 513.516 309.621C512.969 308.814 512.22 308.41 511.27 308.41C510.384 308.41 509.661 308.82 509.102 309.641C508.542 310.448 508.262 311.477 508.262 312.727ZM506.777 322.59V307.492H508.223V309.387C508.522 308.71 508.952 308.169 509.512 307.766C510.085 307.349 510.736 307.141 511.465 307.141C512.741 307.141 513.796 307.648 514.629 308.664C515.462 309.68 515.879 311.034 515.879 312.727C515.879 314.536 515.443 315.93 514.57 316.906C513.698 317.87 512.663 318.352 511.465 318.352C510.684 318.352 510.02 318.15 509.473 317.746C508.926 317.329 508.522 316.809 508.262 316.184V322.59H506.777Z" fill="#F4F4F4"/>
<rect x="384" y="166" width="160" height="120" rx="16" fill="#1E1E1E"/>
<path d="M484 204H444C442.409 204 440.883 204.632 439.757 205.757C438.632 206.883 438 208.409 438 210V238C438 239.591 438.632 241.117 439.757 242.243C440.883 243.368 442.409 244 444 244H462V248H456C455.47 248 454.961 248.211 454.586 248.586C454.211 248.961 454 249.47 454 250C454 250.53 454.211 251.039 454.586 251.414C454.961 251.789 455.47 252 456 252H472C472.53 252 473.039 251.789 473.414 251.414C473.789 251.039 474 250.53 474 250C474 249.47 473.789 248.961 473.414 248.586C473.039 248.211 472.53 248 472 248H466V244H484C485.591 244 487.117 243.368 488.243 242.243C489.368 241.117 490 239.591 490 238V210C490 208.409 489.368 206.883 488.243 205.757C487.117 204.632 485.591 204 484 204ZM444 208H484C484.53 208 485.039 208.211 485.414 208.586C485.789 208.961 486 209.47 486 210V230H442V210C442 209.47 442.211 208.961 442.586 208.586C442.961 208.211 443.47 208 444 208ZM484 240H444C443.47 240 442.961 239.789 442.586 239.414C442.211 239.039 442 238.53 442 238V234H486V238C486 238.53 485.789 239.039 485.414 239.414C485.039 239.789 484.53 240 484 240Z" fill="#F4F4F4"/>
<path d="M606.708 39.7075L603.414 43L606.708 46.2925C606.8 46.3854 606.874 46.4957 606.924 46.6171C606.975 46.7385 607.001 46.8686 607.001 47C607.001 47.1314 606.975 47.2615 606.924 47.3829C606.874 47.5043 606.8 47.6146 606.708 47.7075C606.615 47.8004 606.504 47.8741 606.383 47.9244C606.262 47.9747 606.131 48.0006 606 48.0006C605.869 48.0006 605.739 47.9747 605.617 47.9244C605.496 47.8741 605.385 47.8004 605.293 47.7075L602 44.4137L598.708 47.7075C598.615 47.8004 598.504 47.8741 598.383 47.9244C598.262 47.9747 598.131 48.0006 598 48.0006C597.869 48.0006 597.739 47.9747 597.617 47.9244C597.496 47.8741 597.385 47.8004 597.293 47.7075C597.2 47.6146 597.126 47.5043 597.076 47.3829C597.025 47.2615 596.999 47.1314 596.999 47C596.999 46.8686 597.025 46.7385 597.076 46.6171C597.126 46.4957 597.2 46.3854 597.293 46.2925L600.586 43L597.293 39.7075C597.105 39.5199 596.999 39.2654 596.999 39C596.999 38.7346 597.105 38.4801 597.293 38.2925C597.48 38.1049 597.735 37.9994 598 37.9994C598.265 37.9994 598.52 38.1049 598.708 38.2925L602 41.5863L605.293 38.2925C605.385 38.1996 605.496 38.1259 605.617 38.0756C605.739 38.0253 605.869 37.9994 606 37.9994C606.131 37.9994 606.262 38.0253 606.383 38.0756C606.504 38.1259 606.615 38.1996 606.708 38.2925C606.8 38.3854 606.874 38.4957 606.924 38.6171C606.975 38.7385 607.001 38.8686 607.001 39C607.001 39.1314 606.975 39.2615 606.924 39.3829C606.874 39.5043 606.8 39.6146 606.708 39.7075ZM615 43C615 45.5712 614.238 48.0846 612.809 50.2224C611.381 52.3603 609.35 54.0265 606.975 55.0104C604.599 55.9944 601.986 56.2518 599.464 55.7502C596.942 55.2486 594.626 54.0105 592.808 52.1924C590.99 50.3743 589.751 48.0579 589.25 45.5362C588.748 43.0144 589.006 40.4006 589.99 38.0251C590.974 35.6497 592.64 33.6194 594.778 32.1909C596.915 30.7624 599.429 30 602 30C605.447 30.0036 608.751 31.3744 611.188 33.8116C613.626 36.2488 614.996 39.5533 615 43ZM613 43C613 40.8244 612.355 38.6977 611.146 36.8887C609.937 35.0798 608.22 33.6699 606.21 32.8373C604.2 32.0048 601.988 31.7869 599.854 32.2114C597.72 32.6358 595.76 33.6834 594.222 35.2218C592.683 36.7602 591.636 38.7202 591.211 40.854C590.787 42.9878 591.005 45.1995 591.837 47.2095C592.67 49.2195 594.08 50.9375 595.889 52.1462C597.698 53.3549 599.824 54 602 54C604.916 53.9967 607.712 52.8367 609.775 50.7745C611.837 48.7123 612.997 45.9164 613 43Z" fill="#F4F4F4"/>
<defs>
<filter id="filter0_di_125_739" x="162.554" y="198.864" width="34.1363" height="55.1613" filterUnits="userSpaceOnUse" color-interpolation-filters="sRGB">
<feFlood flood-opacity="0" result="BackgroundImageFix"/>
<feColorMatrix in="SourceAlpha" type="matrix" values="0 0 0 0 0 0 0 0 0 0 0 0 0 0 0 0 0 0 127 0" result="hardAlpha"/>
<feOffset dy="0.578582"/>
<feGaussianBlur stdDeviation="0.723228"/>
<feComposite in2="hardAlpha" operator="out"/>
<feColorMatrix type="matrix" values="0 0 0 0 1 0 0 0 0 1 0 0 0 0 1 0 0 0 0.12 0"/>
<feBlend mode="normal" in2="BackgroundImageFix" result="effect1_dropShadow_125_739"/>
<feBlend mode="normal" in="SourceGraphic" in2="effect1_dropShadow_125_739" result="shape"/>
<feColorMatrix in="SourceAlpha" type="matrix" values="0 0 0 0 0 0 0 0 0 0 0 0 0 0 0 0 0 0 127 0" result="hardAlpha"/>
<feOffset dy="-1.13613"/>
<feGaussianBlur stdDeviation="1.13613"/>
<feComposite in2="hardAlpha" operator="arithmetic" k2="-1" k3="1"/>
<feColorMatrix type="matrix" values="0 0 0 0 0 0 0 0 0 0 0 0 0 0 0 0 0 0 0.25 0"/>
<feBlend mode="normal" in2="shape" result="effect2_innerShadow_125_739"/>
</filter>
</defs>
</svg>
