<svg width="152" height="42" viewBox="0 0 152 42" fill="none" xmlns="http://www.w3.org/2000/svg">
<path d="M1.66667 4.44444C1.66667 2.91032 2.91032 1.66667 4.44445 1.66667H23.3333C24.8675 1.66667 26.1111 2.91032 26.1111 4.44445V12.0479C26.1111 12.7847 25.8185 13.4912 25.2975 14.0121L15.1232 24.1864C14.6023 24.7073 13.8958 25 13.159 25H4.44445C2.91032 25 1.66667 23.7564 1.66667 22.2222V4.44444Z" stroke="white" stroke-width="3.33333"/>
<path d="M13.8886 26.841C13.8886 26.1043 14.1812 25.3978 14.7022 24.8768L24.8765 14.7026C25.3974 14.1816 26.1039 13.889 26.8407 13.889H35.5553C37.0894 13.889 38.333 15.1326 38.333 16.6667V36.6667C38.333 38.2009 37.0894 39.4445 35.5553 39.4445H16.6664C15.1322 39.4445 13.8886 38.2009 13.8886 36.6667V26.841Z" fill="white" fill-opacity="0.2" stroke="white" stroke-width="3.33333"/>
<rect x="6.66748" y="8.88892" width="13.3333" height="1.66667" fill="white"/>
<rect x="12.2231" y="8.88892" width="3.33333" height="1.66667" transform="rotate(-90 12.2231 8.88892)" fill="white"/>
<path d="M7.22314 17.2222C10.9268 17.037 18.0009 15.3333 16.6676 10" stroke="white" stroke-width="1.66667"/>
<path d="M15.9468 18.3333C12.2431 18.1481 9.28011 15.5555 8.88949 12.2222" stroke="white" stroke-width="1.66667"/>
<path d="M29.6393 30.6611H25.6365L24.9949 32.5555H22.2602L26.1407 21.8305H29.1657L33.0463 32.5555H30.281L29.6393 30.6611ZM28.9671 28.6444L27.6379 24.718L26.324 28.6444H28.9671Z" fill="white"/>
<path d="M52.7271 27.5555V15.2755H48.5871V13.5555H58.9671V15.2755H54.8471V27.5555H52.7271ZM59.8163 27.5555V17.6355H61.7163L61.8963 19.5155C62.243 18.8622 62.723 18.3489 63.3363 17.9755C63.963 17.5889 64.7163 17.3955 65.5963 17.3955V19.6155H65.0163C64.4297 19.6155 63.903 19.7155 63.4363 19.9155C62.983 20.1022 62.6163 20.4289 62.3363 20.8955C62.0697 21.3489 61.9363 21.9822 61.9363 22.7955V27.5555H59.8163ZM70.774 27.7955C69.934 27.7955 69.2406 27.6555 68.694 27.3755C68.1473 27.0955 67.7406 26.7289 67.474 26.2755C67.2073 25.8089 67.074 25.3022 67.074 24.7555C67.074 23.7955 67.4473 23.0355 68.194 22.4755C68.9406 21.9155 70.0073 21.6355 71.394 21.6355H73.994V21.4555C73.994 20.6822 73.7806 20.1022 73.354 19.7155C72.9406 19.3289 72.4006 19.1355 71.734 19.1355C71.1473 19.1355 70.634 19.2822 70.194 19.5755C69.7673 19.8555 69.5073 20.2755 69.414 20.8355H67.294C67.3606 20.1155 67.6006 19.5022 68.014 18.9955C68.4406 18.4755 68.974 18.0822 69.614 17.8155C70.2673 17.5355 70.9806 17.3955 71.754 17.3955C73.1406 17.3955 74.214 17.7622 74.974 18.4955C75.734 19.2155 76.114 20.2022 76.114 21.4555V27.5555H74.274L74.094 25.8555C73.814 26.4022 73.4073 26.8622 72.874 27.2355C72.3406 27.6089 71.6406 27.7955 70.774 27.7955ZM71.194 26.0755C71.7673 26.0755 72.2473 25.9422 72.634 25.6755C73.034 25.3955 73.3406 25.0289 73.554 24.5755C73.7806 24.1222 73.9206 23.6222 73.974 23.0755H71.614C70.774 23.0755 70.174 23.2222 69.814 23.5155C69.4673 23.8089 69.294 24.1755 69.294 24.6155C69.294 25.0689 69.4606 25.4289 69.794 25.6955C70.1406 25.9489 70.6073 26.0755 71.194 26.0755ZM78.5858 27.5555V17.6355H80.4658L80.6258 19.3755C80.9325 18.7622 81.3792 18.2822 81.9658 17.9355C82.5658 17.5755 83.2525 17.3955 84.0258 17.3955C85.2258 17.3955 86.1659 17.7689 86.8458 18.5155C87.5392 19.2622 87.8858 20.3755 87.8858 21.8555V27.5555H85.7858V22.0755C85.7858 20.1555 84.9992 19.1955 83.4258 19.1955C82.6392 19.1955 81.9858 19.4755 81.4658 20.0355C80.9592 20.5955 80.7058 21.3955 80.7058 22.4355V27.5555H78.5858ZM94.3427 27.7955C93.0894 27.7955 92.0561 27.4889 91.2427 26.8755C90.4294 26.2622 89.9627 25.4489 89.8427 24.4355H91.9827C92.0894 24.8889 92.3427 25.2822 92.7427 25.6155C93.1427 25.9355 93.6694 26.0955 94.3227 26.0955C94.9627 26.0955 95.4294 25.9622 95.7227 25.6955C96.0161 25.4289 96.1627 25.1222 96.1627 24.7755C96.1627 24.2689 95.9561 23.9289 95.5427 23.7555C95.1427 23.5689 94.5827 23.4022 93.8627 23.2555C93.3027 23.1355 92.7427 22.9755 92.1827 22.7755C91.6361 22.5755 91.1761 22.2955 90.8027 21.9355C90.4427 21.5622 90.2627 21.0622 90.2627 20.4355C90.2627 19.5689 90.5961 18.8489 91.2627 18.2755C91.9294 17.6889 92.8627 17.3955 94.0627 17.3955C95.1694 17.3955 96.0627 17.6622 96.7427 18.1955C97.4361 18.7289 97.8427 19.4822 97.9627 20.4555H95.9227C95.8561 20.0289 95.6561 19.6955 95.3227 19.4555C95.0027 19.2155 94.5694 19.0955 94.0227 19.0955C93.4894 19.0955 93.0761 19.2089 92.7827 19.4355C92.4894 19.6489 92.3427 19.9289 92.3427 20.2755C92.3427 20.6222 92.5427 20.8955 92.9427 21.0955C93.3561 21.2955 93.8961 21.4755 94.5627 21.6355C95.2294 21.7822 95.8427 21.9555 96.4027 22.1555C96.9761 22.3422 97.4361 22.6222 97.7827 22.9955C98.1294 23.3689 98.3027 23.9155 98.3027 24.6355C98.3161 25.5422 97.9627 26.2955 97.2427 26.8955C96.5361 27.4955 95.5694 27.7955 94.3427 27.7955ZM100.617 27.5555V13.1555H102.737V27.5555H100.617ZM108.782 27.7955C107.942 27.7955 107.248 27.6555 106.702 27.3755C106.155 27.0955 105.748 26.7289 105.482 26.2755C105.215 25.8089 105.082 25.3022 105.082 24.7555C105.082 23.7955 105.455 23.0355 106.202 22.4755C106.948 21.9155 108.015 21.6355 109.402 21.6355H112.002V21.4555C112.002 20.6822 111.788 20.1022 111.362 19.7155C110.948 19.3289 110.408 19.1355 109.742 19.1355C109.155 19.1355 108.642 19.2822 108.202 19.5755C107.775 19.8555 107.515 20.2755 107.422 20.8355H105.302C105.368 20.1155 105.608 19.5022 106.022 18.9955C106.448 18.4755 106.982 18.0822 107.622 17.8155C108.275 17.5355 108.988 17.3955 109.762 17.3955C111.148 17.3955 112.222 17.7622 112.982 18.4955C113.742 19.2155 114.122 20.2022 114.122 21.4555V27.5555H112.282L112.102 25.8555C111.822 26.4022 111.415 26.8622 110.882 27.2355C110.348 27.6089 109.648 27.7955 108.782 27.7955ZM109.202 26.0755C109.775 26.0755 110.255 25.9422 110.642 25.6755C111.042 25.3955 111.348 25.0289 111.562 24.5755C111.788 24.1222 111.928 23.6222 111.982 23.0755H109.622C108.782 23.0755 108.182 23.2222 107.822 23.5155C107.475 23.8089 107.302 24.1755 107.302 24.6155C107.302 25.0689 107.468 25.4289 107.802 25.6955C108.148 25.9489 108.615 26.0755 109.202 26.0755ZM120.558 27.5555C119.585 27.5555 118.812 27.3222 118.238 26.8555C117.665 26.3755 117.378 25.5289 117.378 24.3155V19.4155H115.678V17.6355H117.378L117.638 15.1155H119.498V17.6355H122.298V19.4155H119.498V24.3155C119.498 24.8622 119.612 25.2422 119.838 25.4555C120.078 25.6555 120.485 25.7555 121.058 25.7555H122.198V27.5555H120.558ZM125.684 15.7555C125.284 15.7555 124.951 15.6355 124.684 15.3955C124.431 15.1422 124.304 14.8289 124.304 14.4555C124.304 14.0822 124.431 13.7755 124.684 13.5355C124.951 13.2822 125.284 13.1555 125.684 13.1555C126.084 13.1555 126.411 13.2822 126.664 13.5355C126.931 13.7755 127.064 14.0822 127.064 14.4555C127.064 14.8289 126.931 15.1422 126.664 15.3955C126.411 15.6355 126.084 15.7555 125.684 15.7555ZM124.624 27.5555V17.6355H126.744V27.5555H124.624ZM134.183 27.7955C133.236 27.7955 132.383 27.5822 131.623 27.1555C130.876 26.7155 130.283 26.1089 129.843 25.3355C129.403 24.5489 129.183 23.6355 129.183 22.5955C129.183 21.5555 129.403 20.6489 129.843 19.8755C130.296 19.0889 130.903 18.4822 131.663 18.0555C132.423 17.6155 133.27 17.3955 134.203 17.3955C135.15 17.3955 135.996 17.6155 136.743 18.0555C137.503 18.4822 138.103 19.0889 138.543 19.8755C138.996 20.6489 139.223 21.5555 139.223 22.5955C139.223 23.6355 138.996 24.5489 138.543 25.3355C138.103 26.1089 137.503 26.7155 136.743 27.1555C135.983 27.5822 135.13 27.7955 134.183 27.7955ZM134.183 25.9755C134.69 25.9755 135.156 25.8489 135.583 25.5955C136.023 25.3422 136.376 24.9689 136.643 24.4755C136.91 23.9689 137.043 23.3422 137.043 22.5955C137.043 21.8489 136.91 21.2289 136.643 20.7355C136.39 20.2289 136.043 19.8489 135.603 19.5955C135.176 19.3422 134.71 19.2155 134.203 19.2155C133.696 19.2155 133.223 19.3422 132.783 19.5955C132.356 19.8489 132.01 20.2289 131.743 20.7355C131.476 21.2289 131.343 21.8489 131.343 22.5955C131.343 23.3422 131.476 23.9689 131.743 24.4755C132.01 24.9689 132.356 25.3422 132.783 25.5955C133.21 25.8489 133.676 25.9755 134.183 25.9755ZM141.516 27.5555V17.6355H143.396L143.556 19.3755C143.862 18.7622 144.309 18.2822 144.896 17.9355C145.496 17.5755 146.182 17.3955 146.956 17.3955C148.156 17.3955 149.096 17.7689 149.776 18.5155C150.469 19.2622 150.816 20.3755 150.816 21.8555V27.5555H148.716V22.0755C148.716 20.1555 147.929 19.1955 146.356 19.1955C145.569 19.1955 144.916 19.4755 144.396 20.0355C143.889 20.5955 143.636 21.3955 143.636 22.4355V27.5555H141.516Z" fill="white"/>
</svg>
