<svg width="40" height="42" viewBox="0 0 40 42" fill="none" xmlns="http://www.w3.org/2000/svg">
<path d="M1.66667 4.44444C1.66667 2.91032 2.91032 1.66667 4.44445 1.66667H23.3333C24.8675 1.66667 26.1111 2.91032 26.1111 4.44445V12.0479C26.1111 12.7847 25.8185 13.4912 25.2975 14.0121L15.1232 24.1864C14.6023 24.7073 13.8958 25 13.159 25H4.44445C2.91032 25 1.66667 23.7564 1.66667 22.2222V4.44444Z" stroke="white" stroke-width="3.33333"/>
<path d="M13.8886 26.8409C13.8886 26.1042 14.1812 25.3976 14.7022 24.8767L24.8765 14.7024C25.3974 14.1815 26.1039 13.8888 26.8407 13.8888H35.5553C37.0894 13.8888 38.333 15.1325 38.333 16.6666V36.6666C38.333 38.2007 37.0894 39.4444 35.5553 39.4444H16.6664C15.1322 39.4444 13.8886 38.2007 13.8886 36.6666V26.8409Z" fill="white" fill-opacity="0.2" stroke="white" stroke-width="3.33333"/>
<rect x="6.66748" y="8.88916" width="13.3333" height="1.66667" fill="white"/>
<rect x="12.2231" y="8.88916" width="3.33333" height="1.66667" transform="rotate(-90 12.2231 8.88916)" fill="white"/>
<path d="M7.22314 17.2222C10.9268 17.037 18.0009 15.3333 16.6676 10" stroke="white" stroke-width="1.66667"/>
<path d="M15.9468 18.3335C12.2431 18.1483 9.28011 15.5557 8.88949 12.2224" stroke="white" stroke-width="1.66667"/>
<path d="M29.6393 30.6612H25.6365L24.9949 32.5557H22.2602L26.1407 21.8307H29.1657L33.0463 32.5557H30.281L29.6393 30.6612ZM28.9671 28.6446L27.6379 24.7182L26.324 28.6446H28.9671Z" fill="white"/>
</svg>
