<svg width="41" height="43" viewBox="0 0 41 43" fill="none" xmlns="http://www.w3.org/2000/svg">
<path d="M1.70833 4.55556C1.70833 2.98308 2.98308 1.70833 4.55556 1.70833H23.9167C25.4891 1.70833 26.7639 2.98308 26.7639 4.55555V12.3491C26.7639 13.1043 26.4639 13.8285 25.93 14.3624L15.5013 24.7911C14.9674 25.325 14.2432 25.625 13.488 25.625H4.55556C2.98308 25.625 1.70833 24.3503 1.70833 22.7778V4.55556Z" stroke="#BAEF58" stroke-width="3.41667"/>
<path d="M14.2362 27.512C14.2362 26.7569 14.5361 26.0327 15.0701 25.4987L25.4987 15.0701C26.0327 14.5361 26.7569 14.2362 27.512 14.2362H36.4445C38.017 14.2362 39.2917 15.5109 39.2917 17.0834V37.5834C39.2917 39.1559 38.017 40.4306 36.4445 40.4306H17.0834C15.5109 40.4306 14.2362 39.1559 14.2362 37.5834V27.512Z" fill="#BAEF58" fill-opacity="0.2" stroke="#BAEF58" stroke-width="3.41667"/>
<rect x="6.83374" y="9.11084" width="13.6667" height="1.70833" fill="#BAEF58"/>
<rect x="12.5281" y="9.11084" width="3.41667" height="1.70833" transform="rotate(-90 12.5281 9.11084)" fill="#BAEF58"/>
<path d="M7.40308 17.6528C11.1994 17.463 18.4503 15.7167 17.0836 10.25" stroke="#BAEF58" stroke-width="1.70833"/>
<path d="M16.3452 18.7917C12.5489 18.6019 9.51188 15.9445 9.11149 12.5278" stroke="#BAEF58" stroke-width="1.70833"/>
<path d="M29.1306 30.0582H25.0278L24.3701 32H21.567L25.5445 21.0069H28.6452L32.6227 32H29.7883L29.1306 30.0582ZM28.4416 27.9911L27.0792 23.9666L25.7325 27.9911H28.4416Z" fill="#BAEF58"/>
</svg>
