<svg width="40" height="40" viewBox="0 0 40 40" fill="none" xmlns="http://www.w3.org/2000/svg">
<g clip-path="url(#clip0_1_63)">
<path d="M39.6099 20.4607C39.6099 19.1012 39.4997 17.7343 39.2645 16.3968H20.3999V24.0984H31.2028C30.7545 26.5823 29.3141 28.7797 27.205 30.176V35.1732H33.65C37.4347 31.6898 39.6099 26.5456 39.6099 20.4607Z" fill="#4285F4"/>
<path d="M20.4001 40.0014C25.7942 40.0014 30.3431 38.2303 33.6575 35.1731L27.2125 30.1759C25.4194 31.3958 23.1045 32.0866 20.4074 32.0866C15.1897 32.0866 10.7657 28.5665 9.17833 23.8338H2.52759V28.9854C5.92277 35.739 12.8381 40.0014 20.4001 40.0014Z" fill="#34A853"/>
<path d="M9.1708 23.8338C8.33303 21.3499 8.33303 18.6602 9.1708 16.1763V11.0247H2.52741C-0.309265 16.676 -0.309265 23.3341 2.52741 28.9854L9.1708 23.8338Z" fill="#FBBC04"/>
<path d="M20.4001 7.9161C23.2515 7.87201 26.0073 8.94494 28.0723 10.9144L33.7824 5.20436C30.1668 1.80917 25.3679 -0.0574433 20.4001 0.00134778C12.8381 0.00134778 5.92277 4.2637 2.52759 11.0247L9.17098 16.1763C10.751 11.4362 15.1824 7.9161 20.4001 7.9161Z" fill="#EA4335"/>
</g>
<defs>
<clipPath id="clip0_1_63">
<rect width="40" height="40" fill="white"/>
</clipPath>
</defs>
</svg>
