<svg width="18" height="18" viewBox="0 0 18 18" fill="none" xmlns="http://www.w3.org/2000/svg">
<path d="M3.37456 4.5C3.37456 4.35082 3.43382 4.20774 3.53931 4.10225C3.6448 3.99676 3.78787 3.9375 3.93706 3.9375H5.06206V2.8125C5.06206 2.66332 5.12132 2.52024 5.22681 2.41475C5.3323 2.30926 5.47537 2.25 5.62456 2.25C5.77374 2.25 5.91681 2.30926 6.0223 2.41475C6.12779 2.52024 6.18706 2.66332 6.18706 2.8125V3.9375H7.31206C7.46124 3.9375 7.60431 3.99676 7.7098 4.10225C7.81529 4.20774 7.87456 4.35082 7.87456 4.5C7.87456 4.64918 7.81529 4.79226 7.7098 4.89775C7.60431 5.00324 7.46124 5.0625 7.31206 5.0625H6.18706V6.1875C6.18706 6.33668 6.12779 6.47976 6.0223 6.58525C5.91681 6.69074 5.77374 6.75 5.62456 6.75C5.47537 6.75 5.3323 6.69074 5.22681 6.58525C5.12132 6.47976 5.06206 6.33668 5.06206 6.1875V5.0625H3.93706C3.78787 5.0625 3.6448 5.00324 3.53931 4.89775C3.43382 4.79226 3.37456 4.64918 3.37456 4.5ZM12.9371 13.5H12.3746V12.9375C12.3746 12.7883 12.3153 12.6452 12.2098 12.5398C12.1043 12.4343 11.9612 12.375 11.8121 12.375C11.6629 12.375 11.5198 12.4343 11.4143 12.5398C11.3088 12.6452 11.2496 12.7883 11.2496 12.9375V13.5H10.6871C10.5379 13.5 10.3948 13.5593 10.2893 13.6648C10.1838 13.7702 10.1246 13.9133 10.1246 14.0625C10.1246 14.2117 10.1838 14.3548 10.2893 14.4602C10.3948 14.5657 10.5379 14.625 10.6871 14.625H11.2496V15.1875C11.2496 15.3367 11.3088 15.4798 11.4143 15.5852C11.5198 15.6907 11.6629 15.75 11.8121 15.75C11.9612 15.75 12.1043 15.6907 12.2098 15.5852C12.3153 15.4798 12.3746 15.3367 12.3746 15.1875V14.625H12.9371C13.0862 14.625 13.2293 14.5657 13.3348 14.4602C13.4403 14.3548 13.4996 14.2117 13.4996 14.0625C13.4996 13.9133 13.4403 13.7702 13.3348 13.6648C13.2293 13.5593 13.0862 13.5 12.9371 13.5ZM16.8746 10.125H15.7496V9C15.7496 8.85082 15.6903 8.70774 15.5848 8.60225C15.4793 8.49676 15.3362 8.4375 15.1871 8.4375C15.0379 8.4375 14.8948 8.49676 14.7893 8.60225C14.6838 8.70774 14.6246 8.85082 14.6246 9V10.125H13.4996C13.3504 10.125 13.2073 10.1843 13.1018 10.2898C12.9963 10.3952 12.9371 10.5383 12.9371 10.6875C12.9371 10.8367 12.9963 10.9798 13.1018 11.0852C13.2073 11.1907 13.3504 11.25 13.4996 11.25H14.6246V12.375C14.6246 12.5242 14.6838 12.6673 14.7893 12.7727C14.8948 12.8782 15.0379 12.9375 15.1871 12.9375C15.3362 12.9375 15.4793 12.8782 15.5848 12.7727C15.6903 12.6673 15.7496 12.5242 15.7496 12.375V11.25H16.8746C17.0237 11.25 17.1668 11.1907 17.2723 11.0852C17.3778 10.9798 17.4371 10.8367 17.4371 10.6875C17.4371 10.5383 17.3778 10.3952 17.2723 10.2898C17.1668 10.1843 17.0237 10.125 16.8746 10.125ZM15.4198 5.625L5.62456 15.4202C5.4136 15.6311 5.12756 15.7495 4.82932 15.7495C4.53108 15.7495 4.24505 15.6311 4.03409 15.4202L2.57862 13.9662C2.47413 13.8617 2.39124 13.7377 2.33468 13.6012C2.27813 13.4647 2.24902 13.3183 2.24902 13.1706C2.24902 13.0228 2.27813 12.8765 2.33468 12.74C2.39124 12.6035 2.47413 12.4795 2.57862 12.375L12.3746 2.57977C12.479 2.47527 12.6031 2.39238 12.7396 2.33583C12.8761 2.27928 13.0224 2.25017 13.1701 2.25017C13.3179 2.25017 13.4642 2.27928 13.6007 2.33583C13.7372 2.39238 13.8613 2.47527 13.9657 2.57977L15.4198 4.03383C15.5243 4.1383 15.6072 4.26233 15.6637 4.39884C15.7203 4.53534 15.7494 4.68166 15.7494 4.82941C15.7494 4.97717 15.7203 5.12348 15.6637 5.25999C15.6072 5.3965 15.5243 5.52053 15.4198 5.625ZM11.5786 7.875L10.1246 6.42023L3.37456 13.1702L4.82862 14.625L11.5786 7.875ZM14.6246 4.82977L13.1698 3.375L10.9198 5.625L12.3746 7.07977L14.6246 4.82977Z" fill="#111111"/>
</svg>
