<svg width="26" height="42" viewBox="0 0 26 42" fill="none" xmlns="http://www.w3.org/2000/svg">
<g filter="url(#filter0_di_125_253)">
<path d="M22.4612 24.4033C22.4612 25.8045 21.5809 27.2615 19.765 28.4351C17.9631 29.5998 15.3906 30.3655 12.4781 30.3655C9.56551 30.3655 6.99305 29.5998 5.19115 28.4351C3.37526 27.2615 2.49494 25.8045 2.49494 24.4033C2.49494 23.0022 3.37526 21.5452 5.19115 20.3715C6.99305 19.2069 9.56551 18.4412 12.4781 18.4412C15.3906 18.4412 17.9631 19.2069 19.765 20.3715C21.5809 21.5452 22.4612 23.0022 22.4612 24.4033Z" stroke="#F4F4F4" stroke-width="2.76575"/>
<path fill-rule="evenodd" clip-rule="evenodd" d="M3.15951 28.4048C2.61659 28.8247 2.11752 29.2805 1.66833 29.7676C2.17689 30.5222 2.80697 31.2172 3.53773 31.8358C2.99177 32.5394 2.77309 33.2276 2.77309 33.8197C2.77309 34.8265 3.40544 36.1112 5.2042 37.2774C6.97589 38.4261 9.58916 39.2272 12.6175 39.2272C15.6459 39.2272 18.2592 38.4261 20.0309 37.2774C21.8296 36.1112 22.462 34.8265 22.462 33.8197C22.462 33.1719 22.2002 32.4091 21.5345 31.6368C22.227 31.0172 22.8214 30.3265 23.2983 29.5801C22.5915 28.8474 21.7696 28.1891 20.8545 27.6225C23.537 29.1227 25.2351 31.3426 25.2351 33.8197C25.2351 38.3377 19.586 42.0003 12.6175 42.0003C5.64907 42.0003 0 38.3377 0 33.8197C0 31.7432 1.19329 29.8474 3.15951 28.4048ZM19.5841 30.0899C17.7809 28.9036 15.3941 28.1348 12.5717 28.1348C9.34175 28.1348 6.68223 29.1417 4.81498 30.629C4.93817 30.5394 5.06783 30.4503 5.2042 30.3619C6.97589 29.2132 9.58916 28.4121 12.6175 28.4121C15.4007 28.4121 17.8332 29.0887 19.5841 30.0899Z" fill="#F4F4F4"/>
<path d="M22.4625 24.1259V0" stroke="#F4F4F4" stroke-width="2.76575" stroke-linejoin="round"/>
</g>
<defs>
<filter id="filter0_di_125_253" x="-1.16829" y="-0.91764" width="27.5716" height="44.5535" filterUnits="userSpaceOnUse" color-interpolation-filters="sRGB">
<feFlood flood-opacity="0" result="BackgroundImageFix"/>
<feColorMatrix in="SourceAlpha" type="matrix" values="0 0 0 0 0 0 0 0 0 0 0 0 0 0 0 0 0 0 127 0" result="hardAlpha"/>
<feOffset dy="0.46608"/>
<feGaussianBlur stdDeviation="0.5826"/>
<feComposite in2="hardAlpha" operator="out"/>
<feColorMatrix type="matrix" values="0 0 0 0 1 0 0 0 0 1 0 0 0 0 1 0 0 0 0.12 0"/>
<feBlend mode="normal" in2="BackgroundImageFix" result="effect1_dropShadow_125_253"/>
<feBlend mode="normal" in="SourceGraphic" in2="effect1_dropShadow_125_253" result="shape"/>
<feColorMatrix in="SourceAlpha" type="matrix" values="0 0 0 0 0 0 0 0 0 0 0 0 0 0 0 0 0 0 127 0" result="hardAlpha"/>
<feOffset dy="-0.915212"/>
<feGaussianBlur stdDeviation="0.915212"/>
<feComposite in2="hardAlpha" operator="arithmetic" k2="-1" k3="1"/>
<feColorMatrix type="matrix" values="0 0 0 0 0 0 0 0 0 0 0 0 0 0 0 0 0 0 0.25 0"/>
<feBlend mode="normal" in2="shape" result="effect2_innerShadow_125_253"/>
</filter>
</defs>
</svg>
