<svg width="40" height="40" viewBox="0 0 40 40" fill="none" xmlns="http://www.w3.org/2000/svg">
<g clip-path="url(#clip0_1_65)">
<path d="M36.3199 31.1726C35.7149 32.5701 34.9989 33.8564 34.1693 35.0391C33.0385 36.6514 32.1126 37.7674 31.399 38.3872C30.2929 39.4044 29.1077 39.9254 27.8386 39.955C26.9276 39.955 25.8288 39.6958 24.5499 39.1699C23.2667 38.6464 22.0875 38.3872 21.0092 38.3872C19.8784 38.3872 18.6656 38.6464 17.3684 39.1699C16.0691 39.6958 15.0225 39.9698 14.2223 39.997C13.0053 40.0489 11.7922 39.5131 10.5814 38.3872C9.8086 37.7131 8.84197 36.5576 7.68398 34.9206C6.44155 33.1725 5.4201 31.1454 4.61988 28.8344C3.76287 26.3382 3.33325 23.9209 3.33325 21.5808C3.33325 18.9001 3.91249 16.5881 5.0727 14.6506C5.98453 13.0944 7.19757 11.8667 8.7158 10.9655C10.234 10.0643 11.8745 9.60508 13.6411 9.5757C14.6077 9.5757 15.8753 9.8747 17.4506 10.4623C19.0214 11.052 20.03 11.351 20.4722 11.351C20.8028 11.351 21.9233 11.0013 23.8227 10.3043C25.619 9.65792 27.135 9.39027 28.3769 9.4957C31.7422 9.7673 34.2705 11.0939 35.952 13.484C32.9422 15.3076 31.4533 17.8619 31.483 21.1386C31.5101 23.6908 32.436 25.8147 34.2557 27.5011C35.0804 28.2838 36.0013 28.8887 37.026 29.3183C36.8038 29.9627 36.5692 30.58 36.3199 31.1726ZM28.6016 0.800655C28.6016 2.80111 27.8707 4.66893 26.414 6.39777C24.656 8.45302 22.5297 9.64064 20.2238 9.45323C20.1944 9.21324 20.1774 8.96066 20.1774 8.69523C20.1774 6.7748 21.0134 4.71955 22.4981 3.03911C23.2393 2.18827 24.182 1.48081 25.3251 0.916453C26.4658 0.360519 27.5448 0.0530756 28.5596 0.000427246C28.5892 0.267857 28.6016 0.535304 28.6016 0.800629V0.800655Z" fill="#545454"/>
</g>
<defs>
<clipPath id="clip0_1_65">
<rect width="40" height="40" fill="white"/>
</clipPath>
</defs>
</svg>
