<svg width="18" height="18" viewBox="0 0 18 18" fill="none" xmlns="http://www.w3.org/2000/svg">
<path d="M15.75 10.6875V14.625C15.75 14.9233 15.6315 15.2095 15.4205 15.4204C15.2095 15.6314 14.9234 15.75 14.625 15.75H3.375C3.07663 15.75 2.79048 15.6314 2.5795 15.4204C2.36853 15.2095 2.25 14.9233 2.25 14.625V10.6875C2.25 10.5383 2.30926 10.3952 2.41475 10.2897C2.52024 10.1842 2.66332 10.125 2.8125 10.125C2.96168 10.125 3.10476 10.1842 3.21025 10.2897C3.31574 10.3952 3.375 10.5383 3.375 10.6875V14.625H14.625V10.6875C14.625 10.5383 14.6843 10.3952 14.7898 10.2897C14.8952 10.1842 15.0383 10.125 15.1875 10.125C15.3367 10.125 15.4798 10.1842 15.5852 10.2897C15.6907 10.3952 15.75 10.5383 15.75 10.6875ZM6.1875 6.18745H8.4375V10.6875C8.4375 10.8366 8.49676 10.9797 8.60225 11.0852C8.70774 11.1907 8.85082 11.25 9 11.25C9.14918 11.25 9.29226 11.1907 9.39775 11.0852C9.50324 10.9797 9.5625 10.8366 9.5625 10.6875V6.18745H11.8125C11.9238 6.18754 12.0327 6.1546 12.1252 6.0928C12.2178 6.03099 12.29 5.94311 12.3326 5.84027C12.3752 5.73744 12.3864 5.62427 12.3646 5.51509C12.3429 5.40592 12.2892 5.30565 12.2105 5.22699L9.39797 2.41449C9.34573 2.36219 9.28369 2.3207 9.2154 2.29239C9.14712 2.26408 9.07392 2.24951 9 2.24951C8.92608 2.24951 8.85288 2.26408 8.7846 2.29239C8.71631 2.3207 8.65427 2.36219 8.60203 2.41449L5.78953 5.22699C5.71077 5.30565 5.65713 5.40592 5.63539 5.51509C5.61365 5.62427 5.62479 5.73744 5.6674 5.84027C5.71001 5.94311 5.78218 6.03099 5.87476 6.0928C5.96734 6.1546 6.07618 6.18754 6.1875 6.18745Z" fill="#111111"/>
</svg>
